<svg width="256" height="45" viewBox="0 0 256 45" fill="none" xmlns="http://www.w3.org/2000/svg">
<path d="M7.002 20C6.882 20 6.774 19.958 6.678 19.874C6.594 19.79 6.552 19.682 6.552 19.55V17.516H0.954C0.834 17.516 0.726 17.474 0.63 17.39C0.546 17.306 0.504 17.198 0.504 17.066V15.356C0.504 15.248 0.522 15.152 0.558 15.068C0.606 14.972 0.654 14.882 0.702 14.798L5.94 7.706C6.096 7.502 6.318 7.4 6.606 7.4H9.216C9.348 7.4 9.456 7.442 9.54 7.526C9.636 7.61 9.684 7.718 9.684 7.85V14.834H11.268C11.412 14.834 11.526 14.882 11.61 14.978C11.694 15.062 11.736 15.164 11.736 15.284V17.066C11.736 17.198 11.688 17.306 11.592 17.39C11.508 17.474 11.406 17.516 11.286 17.516H9.684V19.55C9.684 19.682 9.636 19.79 9.54 19.874C9.456 19.958 9.348 20 9.216 20H7.002ZM3.6 14.96H6.624V10.712L3.6 14.96ZM19.2715 20C19.1515 20 19.0435 19.958 18.9475 19.874C18.8635 19.79 18.8215 19.682 18.8215 19.55V17.516H13.2235C13.1035 17.516 12.9955 17.474 12.8995 17.39C12.8155 17.306 12.7735 17.198 12.7735 17.066V15.356C12.7735 15.248 12.7915 15.152 12.8275 15.068C12.8755 14.972 12.9235 14.882 12.9715 14.798L18.2095 7.706C18.3655 7.502 18.5875 7.4 18.8755 7.4H21.4855C21.6175 7.4 21.7255 7.442 21.8095 7.526C21.9055 7.61 21.9535 7.718 21.9535 7.85V14.834H23.5375C23.6815 14.834 23.7955 14.882 23.8795 14.978C23.9635 15.062 24.0055 15.164 24.0055 15.284V17.066C24.0055 17.198 23.9575 17.306 23.8615 17.39C23.7775 17.474 23.6755 17.516 23.5555 17.516H21.9535V19.55C21.9535 19.682 21.9055 19.79 21.8095 19.874C21.7255 19.958 21.6175 20 21.4855 20H19.2715ZM15.8695 14.96H18.8935V10.712L15.8695 14.96ZM25.352 21.35C25.256 21.35 25.172 21.308 25.1 21.224C25.028 21.152 24.998 21.062 25.01 20.954L25.568 17.426C25.592 17.27 25.652 17.132 25.748 17.012C25.856 16.88 26.012 16.814 26.216 16.814H28.322C28.418 16.814 28.496 16.85 28.556 16.922C28.628 16.994 28.664 17.072 28.664 17.156C28.664 17.228 28.652 17.3 28.628 17.372L27.26 20.846C27.212 20.966 27.14 21.08 27.044 21.188C26.948 21.296 26.804 21.35 26.612 21.35H25.352ZM35.1858 20.198C34.0578 20.198 33.1158 20.024 32.3598 19.676C31.6038 19.316 31.0278 18.854 30.6318 18.29C30.2478 17.714 30.0438 17.096 30.0198 16.436C30.0198 16.328 30.0558 16.238 30.1278 16.166C30.1998 16.094 30.2898 16.058 30.3978 16.058H32.8098C32.9658 16.058 33.0858 16.094 33.1698 16.166C33.2658 16.226 33.3378 16.304 33.3858 16.4C33.4938 16.676 33.6318 16.904 33.7998 17.084C33.9798 17.264 34.1838 17.396 34.4118 17.48C34.6518 17.564 34.9158 17.606 35.2038 17.606C35.5398 17.606 35.8518 17.534 36.1398 17.39C36.4278 17.246 36.6558 17.036 36.8238 16.76C37.0038 16.472 37.0938 16.13 37.0938 15.734C37.0938 15.374 37.0098 15.062 36.8418 14.798C36.6858 14.534 36.4638 14.324 36.1758 14.168C35.8878 14.012 35.5638 13.934 35.2038 13.934C34.9158 13.934 34.6818 13.97 34.5018 14.042C34.3218 14.102 34.1718 14.18 34.0518 14.276C33.9318 14.372 33.8238 14.456 33.7278 14.528C33.6318 14.588 33.5238 14.618 33.4038 14.618H31.0458C30.9378 14.618 30.8418 14.582 30.7578 14.51C30.6858 14.426 30.6498 14.33 30.6498 14.222L31.2978 7.94C31.3218 7.76 31.3878 7.628 31.4958 7.544C31.6038 7.448 31.7358 7.4 31.8918 7.4H39.1098C39.2418 7.4 39.3498 7.442 39.4338 7.526C39.5178 7.61 39.5598 7.718 39.5598 7.85V9.542C39.5598 9.674 39.5178 9.782 39.4338 9.866C39.3498 9.95 39.2418 9.992 39.1098 9.992H33.8898L33.6558 12.332C33.9198 12.152 34.2258 12.008 34.5738 11.9C34.9338 11.78 35.4198 11.72 36.0318 11.72C36.6078 11.72 37.1538 11.816 37.6698 12.008C38.1978 12.2 38.6658 12.476 39.0738 12.836C39.4938 13.196 39.8178 13.628 40.0458 14.132C40.2858 14.624 40.4058 15.182 40.4058 15.806C40.4058 16.658 40.1958 17.414 39.7758 18.074C39.3678 18.734 38.7738 19.256 37.9938 19.64C37.2138 20.012 36.2778 20.198 35.1858 20.198ZM47.1645 20.18C46.3005 20.18 45.5505 20.06 44.9145 19.82C44.2785 19.568 43.7505 19.226 43.3305 18.794C42.9225 18.362 42.6105 17.858 42.3945 17.282C42.1785 16.706 42.0525 16.088 42.0165 15.428C42.0045 15.104 41.9925 14.738 41.9805 14.33C41.9805 13.91 41.9805 13.49 41.9805 13.07C41.9925 12.638 42.0045 12.254 42.0165 11.918C42.0525 11.258 42.1785 10.646 42.3945 10.082C42.6225 9.506 42.9465 9.008 43.3665 8.588C43.7985 8.156 44.3265 7.82 44.9505 7.58C45.5865 7.34 46.3245 7.22 47.1645 7.22C48.0165 7.22 48.7545 7.34 49.3785 7.58C50.0025 7.82 50.5245 8.156 50.9445 8.588C51.3765 9.008 51.7065 9.506 51.9345 10.082C52.1625 10.646 52.2885 11.258 52.3125 11.918C52.3365 12.254 52.3485 12.638 52.3485 13.07C52.3605 13.49 52.3605 13.91 52.3485 14.33C52.3485 14.738 52.3365 15.104 52.3125 15.428C52.2885 16.088 52.1625 16.706 51.9345 17.282C51.7185 17.858 51.4005 18.362 50.9805 18.794C50.5725 19.226 50.0505 19.568 49.4145 19.82C48.7905 20.06 48.0405 20.18 47.1645 20.18ZM47.1645 17.57C47.7885 17.57 48.2385 17.372 48.5145 16.976C48.8025 16.568 48.9525 16.022 48.9645 15.338C48.9885 14.99 49.0005 14.624 49.0005 14.24C49.0125 13.856 49.0125 13.472 49.0005 13.088C49.0005 12.704 48.9885 12.35 48.9645 12.026C48.9525 11.366 48.8025 10.832 48.5145 10.424C48.2385 10.016 47.7885 9.806 47.1645 9.794C46.5405 9.806 46.0905 10.016 45.8145 10.424C45.5385 10.832 45.3885 11.366 45.3645 12.026C45.3525 12.35 45.3405 12.704 45.3285 13.088C45.3285 13.472 45.3285 13.856 45.3285 14.24C45.3405 14.624 45.3525 14.99 45.3645 15.338C45.3885 16.022 45.5445 16.568 45.8325 16.976C46.1205 17.372 46.5645 17.57 47.1645 17.57Z" fill="#414141"/>
<path d="M60.502 20C60.382 20 60.274 19.958 60.178 19.874C60.094 19.79 60.052 19.682 60.052 19.55V17.894H58.72C58.588 17.894 58.48 17.852 58.396 17.768C58.312 17.684 58.27 17.576 58.27 17.444V16.76C58.27 16.628 58.312 16.52 58.396 16.436C58.48 16.352 58.588 16.31 58.72 16.31H60.052V15.392H58.72C58.588 15.392 58.48 15.35 58.396 15.266C58.312 15.17 58.27 15.062 58.27 14.942V13.592C58.27 13.46 58.312 13.352 58.396 13.268C58.48 13.172 58.588 13.124 58.72 13.124H60.052V7.85C60.052 7.718 60.094 7.61 60.178 7.526C60.274 7.442 60.382 7.4 60.502 7.4H65.56C66.556 7.4 67.42 7.556 68.152 7.868C68.896 8.168 69.472 8.624 69.88 9.236C70.288 9.848 70.492 10.622 70.492 11.558C70.492 12.434 70.288 13.154 69.88 13.718C69.472 14.282 68.896 14.702 68.152 14.978C67.42 15.254 66.556 15.392 65.56 15.392H63.4V16.31H65.812C65.944 16.31 66.052 16.352 66.136 16.436C66.232 16.52 66.28 16.628 66.28 16.76V17.444C66.28 17.576 66.232 17.684 66.136 17.768C66.052 17.852 65.944 17.894 65.812 17.894H63.4V19.55C63.4 19.682 63.358 19.79 63.274 19.874C63.19 19.958 63.082 20 62.95 20H60.502ZM63.346 13.124H65.47C65.986 13.124 66.394 12.992 66.694 12.728C66.994 12.464 67.144 12.062 67.144 11.522C67.144 11.066 67.012 10.682 66.748 10.37C66.484 10.058 66.058 9.902 65.47 9.902H63.346V13.124Z" fill="#414141"/>
<path d="M4.068 40.12C3.332 40.12 2.72 39.984 2.232 39.712C1.752 39.44 1.388 39.06 1.14 38.572C0.892 38.084 0.756 37.516 0.732 36.868C0.724 36.54 0.72 36.188 0.72 35.812C0.72 35.436 0.724 35.076 0.732 34.732C0.756 34.084 0.892 33.516 1.14 33.028C1.388 32.54 1.752 32.16 2.232 31.888C2.72 31.616 3.332 31.48 4.068 31.48C4.62 31.48 5.104 31.556 5.52 31.708C5.936 31.86 6.28 32.064 6.552 32.32C6.832 32.576 7.044 32.864 7.188 33.184C7.332 33.496 7.412 33.82 7.428 34.156C7.436 34.228 7.412 34.288 7.356 34.336C7.308 34.384 7.248 34.408 7.176 34.408H6.516C6.444 34.408 6.38 34.388 6.324 34.348C6.276 34.308 6.24 34.236 6.216 34.132C6.08 33.508 5.824 33.08 5.448 32.848C5.08 32.616 4.616 32.5 4.056 32.5C3.416 32.5 2.908 32.684 2.532 33.052C2.156 33.412 1.952 33.992 1.92 34.792C1.896 35.448 1.896 36.12 1.92 36.808C1.952 37.608 2.156 38.192 2.532 38.56C2.908 38.92 3.416 39.1 4.056 39.1C4.616 39.1 5.08 38.984 5.448 38.752C5.824 38.52 6.08 38.092 6.216 37.468C6.24 37.364 6.276 37.292 6.324 37.252C6.38 37.212 6.444 37.192 6.516 37.192H7.176C7.248 37.192 7.308 37.216 7.356 37.264C7.412 37.312 7.436 37.372 7.428 37.444C7.412 37.78 7.332 38.108 7.188 38.428C7.044 38.74 6.832 39.024 6.552 39.28C6.28 39.536 5.936 39.74 5.52 39.892C5.104 40.044 4.62 40.12 4.068 40.12ZM12.0976 40C12.0176 40 11.9496 39.976 11.8936 39.928C11.8456 39.872 11.8216 39.804 11.8216 39.724V34.036C11.8216 33.956 11.8456 33.892 11.8936 33.844C11.9496 33.788 12.0176 33.76 12.0976 33.76H12.6616C12.7416 33.76 12.8056 33.788 12.8536 33.844C12.9096 33.892 12.9376 33.956 12.9376 34.036V36.34H14.0296L15.6496 33.94C15.6896 33.884 15.7336 33.84 15.7816 33.808C15.8296 33.776 15.8936 33.76 15.9736 33.76H16.5976C16.6696 33.76 16.7296 33.776 16.7776 33.808C16.8256 33.84 16.8496 33.888 16.8496 33.952C16.8496 33.968 16.8416 33.992 16.8256 34.024C16.8176 34.048 16.8056 34.072 16.7896 34.096L14.9896 36.748L17.0296 39.652C17.0696 39.7 17.0896 39.752 17.0896 39.808C17.0896 39.872 17.0656 39.92 17.0176 39.952C16.9776 39.984 16.9216 40 16.8496 40H16.1176C16.0456 40 15.9856 39.984 15.9376 39.952C15.8896 39.92 15.8456 39.876 15.8056 39.82L14.0416 37.312H12.9376V39.724C12.9376 39.804 12.9096 39.872 12.8536 39.928C12.8056 39.976 12.7416 40 12.6616 40H12.0976ZM19.9952 40.12C19.5952 40.12 19.2312 40.04 18.9032 39.88C18.5752 39.72 18.3112 39.504 18.1112 39.232C17.9112 38.96 17.8112 38.652 17.8112 38.308C17.8112 37.756 18.0352 37.316 18.4832 36.988C18.9312 36.66 19.5152 36.444 20.2352 36.34L22.0232 36.088V35.74C22.0232 35.356 21.9112 35.056 21.6872 34.84C21.4712 34.624 21.1152 34.516 20.6192 34.516C20.2592 34.516 19.9672 34.588 19.7432 34.732C19.5272 34.876 19.3752 35.06 19.2872 35.284C19.2392 35.404 19.1552 35.464 19.0352 35.464H18.4952C18.4072 35.464 18.3392 35.44 18.2912 35.392C18.2512 35.336 18.2312 35.272 18.2312 35.2C18.2312 35.08 18.2752 34.932 18.3632 34.756C18.4592 34.58 18.6032 34.408 18.7952 34.24C18.9872 34.072 19.2312 33.932 19.5272 33.82C19.8312 33.7 20.1992 33.64 20.6312 33.64C21.1112 33.64 21.5152 33.704 21.8432 33.832C22.1712 33.952 22.4272 34.116 22.6112 34.324C22.8032 34.532 22.9392 34.768 23.0192 35.032C23.1072 35.296 23.1512 35.564 23.1512 35.836V39.724C23.1512 39.804 23.1232 39.872 23.0672 39.928C23.0192 39.976 22.9552 40 22.8752 40H22.3232C22.2352 40 22.1672 39.976 22.1192 39.928C22.0712 39.872 22.0472 39.804 22.0472 39.724V39.208C21.9432 39.352 21.8032 39.496 21.6272 39.64C21.4512 39.776 21.2312 39.892 20.9672 39.988C20.7032 40.076 20.3792 40.12 19.9952 40.12ZM20.2472 39.22C20.5752 39.22 20.8752 39.152 21.1472 39.016C21.4192 38.872 21.6312 38.652 21.7832 38.356C21.9432 38.06 22.0232 37.688 22.0232 37.24V36.904L20.6312 37.108C20.0632 37.188 19.6352 37.324 19.3472 37.516C19.0592 37.7 18.9152 37.936 18.9152 38.224C18.9152 38.448 18.9792 38.636 19.1072 38.788C19.2432 38.932 19.4112 39.04 19.6112 39.112C19.8192 39.184 20.0312 39.22 20.2472 39.22ZM25.1643 42.28C25.0843 42.28 25.0163 42.252 24.9603 42.196C24.9123 42.148 24.8883 42.084 24.8883 42.004V34.036C24.8883 33.956 24.9123 33.892 24.9603 33.844C25.0163 33.788 25.0843 33.76 25.1643 33.76H25.7163C25.7963 33.76 25.8603 33.788 25.9083 33.844C25.9643 33.892 25.9923 33.956 25.9923 34.036V34.564C26.1843 34.3 26.4403 34.08 26.7603 33.904C27.0803 33.728 27.4803 33.64 27.9603 33.64C28.4083 33.64 28.7883 33.716 29.1003 33.868C29.4203 34.02 29.6803 34.228 29.8803 34.492C30.0883 34.756 30.2443 35.056 30.3483 35.392C30.4523 35.728 30.5083 36.088 30.5163 36.472C30.5243 36.6 30.5283 36.736 30.5283 36.88C30.5283 37.024 30.5243 37.16 30.5163 37.288C30.5083 37.664 30.4523 38.024 30.3483 38.368C30.2443 38.704 30.0883 39.004 29.8803 39.268C29.6803 39.524 29.4203 39.732 29.1003 39.892C28.7883 40.044 28.4083 40.12 27.9603 40.12C27.4963 40.12 27.1043 40.036 26.7843 39.868C26.4723 39.692 26.2163 39.476 26.0163 39.22V42.004C26.0163 42.084 25.9923 42.148 25.9443 42.196C25.8963 42.252 25.8283 42.28 25.7403 42.28H25.1643ZM27.7083 39.148C28.1243 39.148 28.4483 39.06 28.6803 38.884C28.9203 38.7 29.0923 38.464 29.1963 38.176C29.3003 37.88 29.3603 37.564 29.3763 37.228C29.3843 36.996 29.3843 36.764 29.3763 36.532C29.3603 36.196 29.3003 35.884 29.1963 35.596C29.0923 35.3 28.9203 35.064 28.6803 34.888C28.4483 34.704 28.1243 34.612 27.7083 34.612C27.3163 34.612 26.9963 34.704 26.7483 34.888C26.5083 35.072 26.3283 35.308 26.2083 35.596C26.0963 35.876 26.0323 36.164 26.0163 36.46C26.0083 36.588 26.0043 36.74 26.0043 36.916C26.0043 37.092 26.0083 37.248 26.0163 37.384C26.0243 37.664 26.0883 37.94 26.2083 38.212C26.3363 38.484 26.5243 38.708 26.7723 38.884C27.0203 39.06 27.3323 39.148 27.7083 39.148ZM33.9327 40C33.8527 40 33.7847 39.976 33.7287 39.928C33.6807 39.872 33.6567 39.804 33.6567 39.724V34.72H31.5687C31.4887 34.72 31.4207 34.696 31.3647 34.648C31.3167 34.592 31.2927 34.524 31.2927 34.444V34.036C31.2927 33.956 31.3167 33.892 31.3647 33.844C31.4207 33.788 31.4887 33.76 31.5687 33.76H36.8487C36.9287 33.76 36.9927 33.788 37.0407 33.844C37.0967 33.892 37.1247 33.956 37.1247 34.036V34.444C37.1247 34.524 37.0967 34.592 37.0407 34.648C36.9927 34.696 36.9287 34.72 36.8487 34.72H34.7607V39.724C34.7607 39.804 34.7367 39.872 34.6887 39.928C34.6407 39.976 34.5727 40 34.4847 40H33.9327ZM40.7213 40.12C40.1133 40.12 39.6053 40.004 39.1973 39.772C38.7893 39.54 38.4773 39.22 38.2613 38.812C38.0453 38.396 37.9253 37.924 37.9013 37.396C37.8933 37.26 37.8893 37.088 37.8893 36.88C37.8893 36.664 37.8933 36.492 37.9013 36.364C37.9253 35.828 38.0453 35.356 38.2613 34.948C38.4853 34.54 38.8013 34.22 39.2093 33.988C39.6173 33.756 40.1213 33.64 40.7213 33.64C41.3213 33.64 41.8253 33.756 42.2333 33.988C42.6413 34.22 42.9533 34.54 43.1693 34.948C43.3933 35.356 43.5173 35.828 43.5413 36.364C43.5493 36.492 43.5533 36.664 43.5533 36.88C43.5533 37.088 43.5493 37.26 43.5413 37.396C43.5173 37.924 43.3973 38.396 43.1813 38.812C42.9653 39.22 42.6533 39.54 42.2453 39.772C41.8373 40.004 41.3293 40.12 40.7213 40.12ZM40.7213 39.196C41.2173 39.196 41.6133 39.04 41.9093 38.728C42.2053 38.408 42.3653 37.944 42.3893 37.336C42.3973 37.216 42.4013 37.064 42.4013 36.88C42.4013 36.696 42.3973 36.544 42.3893 36.424C42.3653 35.816 42.2053 35.356 41.9093 35.044C41.6133 34.724 41.2173 34.564 40.7213 34.564C40.2253 34.564 39.8253 34.724 39.5213 35.044C39.2253 35.356 39.0693 35.816 39.0533 36.424C39.0453 36.544 39.0413 36.696 39.0413 36.88C39.0413 37.064 39.0453 37.216 39.0533 37.336C39.0693 37.944 39.2253 38.408 39.5213 38.728C39.8253 39.04 40.2253 39.196 40.7213 39.196ZM45.32 40C45.248 40 45.184 39.976 45.128 39.928C45.08 39.872 45.056 39.812 45.056 39.748V34.036C45.056 33.956 45.08 33.892 45.128 33.844C45.184 33.788 45.252 33.76 45.332 33.76H45.908C45.988 33.76 46.052 33.788 46.1 33.844C46.148 33.892 46.172 33.956 46.172 34.036V39.124L45.86 38.8L49.496 33.94C49.536 33.892 49.58 33.852 49.628 33.82C49.676 33.78 49.736 33.76 49.808 33.76H50.36C50.424 33.76 50.48 33.784 50.528 33.832C50.584 33.88 50.612 33.936 50.612 34V39.724C50.612 39.804 50.584 39.872 50.528 39.928C50.48 39.976 50.416 40 50.336 40H49.772C49.684 40 49.616 39.976 49.568 39.928C49.52 39.872 49.496 39.804 49.496 39.724V34.936L49.832 34.924L46.172 39.82C46.14 39.86 46.1 39.9 46.052 39.94C46.004 39.98 45.94 40 45.86 40H45.32ZM47.864 32.932C47.4 32.932 47.036 32.86 46.772 32.716C46.508 32.572 46.324 32.388 46.22 32.164C46.116 31.932 46.064 31.692 46.064 31.444C46.064 31.38 46.08 31.328 46.112 31.288C46.152 31.24 46.212 31.216 46.292 31.216H46.7C46.772 31.216 46.828 31.24 46.868 31.288C46.908 31.328 46.928 31.38 46.928 31.444C46.928 31.628 46.988 31.8 47.108 31.96C47.236 32.112 47.488 32.188 47.864 32.188C48.248 32.188 48.5 32.112 48.62 31.96C48.74 31.8 48.8 31.628 48.8 31.444C48.8 31.38 48.82 31.328 48.86 31.288C48.9 31.24 48.956 31.216 49.028 31.216H49.448C49.52 31.216 49.576 31.24 49.616 31.288C49.656 31.328 49.676 31.38 49.676 31.444C49.676 31.692 49.62 31.932 49.508 32.164C49.404 32.388 49.22 32.572 48.956 32.716C48.692 32.86 48.328 32.932 47.864 32.932Z" fill="#BFBFBF"/>
<path d="M201.672 20.16C200.829 20.16 200.115 20.016 199.528 19.728C198.952 19.4293 198.509 19.0453 198.2 18.576C197.901 18.1067 197.741 17.6107 197.72 17.088C197.709 16.992 197.736 16.9173 197.8 16.864C197.864 16.8107 197.944 16.784 198.04 16.784H198.904C199 16.784 199.085 16.8053 199.16 16.848C199.235 16.8907 199.293 16.9813 199.336 17.12C199.443 17.5147 199.613 17.84 199.848 18.096C200.093 18.3413 200.371 18.5227 200.68 18.64C201 18.7467 201.331 18.8 201.672 18.8C202.131 18.8 202.547 18.7093 202.92 18.528C203.304 18.336 203.608 18.0587 203.832 17.696C204.056 17.3227 204.168 16.8747 204.168 16.352C204.168 15.872 204.056 15.4613 203.832 15.12C203.619 14.768 203.32 14.5013 202.936 14.32C202.563 14.128 202.141 14.032 201.672 14.032C201.32 14.032 201.032 14.0747 200.808 14.16C200.584 14.2453 200.392 14.3467 200.232 14.464C200.083 14.5813 199.944 14.6827 199.816 14.768C199.699 14.8533 199.565 14.896 199.416 14.896H198.584C198.488 14.896 198.403 14.864 198.328 14.8C198.253 14.7253 198.221 14.64 198.232 14.544L198.744 9.2C198.755 9.072 198.792 8.976 198.856 8.912C198.931 8.83733 199.027 8.8 199.144 8.8H204.728C204.835 8.8 204.92 8.83733 204.984 8.912C205.059 8.976 205.096 9.06133 205.096 9.168V9.792C205.096 9.90933 205.059 10 204.984 10.064C204.92 10.128 204.835 10.16 204.728 10.16H200.12L199.816 13.312C199.965 13.216 200.205 13.104 200.536 12.976C200.867 12.8373 201.32 12.768 201.896 12.768C202.419 12.768 202.909 12.848 203.368 13.008C203.837 13.168 204.253 13.4027 204.616 13.712C204.979 14.0213 205.261 14.4 205.464 14.848C205.667 15.2853 205.768 15.792 205.768 16.368C205.768 17.1787 205.587 17.8667 205.224 18.432C204.872 18.9973 204.387 19.4293 203.768 19.728C203.16 20.016 202.461 20.16 201.672 20.16ZM211.572 20.16C210.836 20.16 210.212 20.048 209.7 19.824C209.199 19.5893 208.788 19.2693 208.468 18.864C208.148 18.4587 207.913 17.9947 207.764 17.472C207.625 16.9493 207.545 16.3947 207.524 15.808C207.513 15.52 207.503 15.216 207.492 14.896C207.492 14.576 207.492 14.256 207.492 13.936C207.503 13.6053 207.513 13.2907 207.524 12.992C207.535 12.4053 207.615 11.8507 207.764 11.328C207.924 10.7947 208.159 10.3307 208.468 9.936C208.788 9.53067 209.204 9.216 209.716 8.992C210.228 8.75733 210.847 8.64 211.572 8.64C212.308 8.64 212.927 8.75733 213.428 8.992C213.94 9.216 214.356 9.53067 214.676 9.936C214.996 10.3307 215.231 10.7947 215.38 11.328C215.54 11.8507 215.625 12.4053 215.636 12.992C215.647 13.2907 215.652 13.6053 215.652 13.936C215.663 14.256 215.663 14.576 215.652 14.896C215.652 15.216 215.647 15.52 215.636 15.808C215.625 16.3947 215.54 16.9493 215.38 17.472C215.231 17.9947 214.996 18.4587 214.676 18.864C214.367 19.2693 213.956 19.5893 213.444 19.824C212.943 20.048 212.319 20.16 211.572 20.16ZM211.572 18.8C212.404 18.8 213.017 18.528 213.412 17.984C213.817 17.4293 214.025 16.6773 214.036 15.728C214.057 15.4187 214.068 15.12 214.068 14.832C214.068 14.5333 214.068 14.24 214.068 13.952C214.068 13.6533 214.057 13.36 214.036 13.072C214.025 12.144 213.817 11.4027 213.412 10.848C213.017 10.2827 212.404 10 211.572 10C210.751 10 210.137 10.2827 209.732 10.848C209.337 11.4027 209.129 12.144 209.108 13.072C209.108 13.36 209.103 13.6533 209.092 13.952C209.092 14.24 209.092 14.5333 209.092 14.832C209.103 15.12 209.108 15.4187 209.108 15.728C209.129 16.6773 209.343 17.4293 209.748 17.984C210.153 18.528 210.761 18.8 211.572 18.8ZM217.494 21.2C217.409 21.2 217.339 21.168 217.286 21.104C217.243 21.04 217.227 20.96 217.238 20.864L217.606 18.576C217.627 18.448 217.67 18.3413 217.734 18.256C217.809 18.16 217.915 18.112 218.054 18.112H219.126C219.201 18.112 219.259 18.1387 219.302 18.192C219.355 18.2453 219.382 18.3093 219.382 18.384C219.382 18.4693 219.361 18.5547 219.318 18.64L218.486 20.832C218.443 20.9387 218.385 21.024 218.31 21.088C218.246 21.1627 218.15 21.2 218.022 21.2H217.494ZM225.078 20.16C224.236 20.16 223.521 20.016 222.934 19.728C222.358 19.4293 221.916 19.0453 221.606 18.576C221.308 18.1067 221.148 17.6107 221.126 17.088C221.116 16.992 221.142 16.9173 221.206 16.864C221.27 16.8107 221.35 16.784 221.446 16.784H222.31C222.406 16.784 222.492 16.8053 222.566 16.848C222.641 16.8907 222.7 16.9813 222.742 17.12C222.849 17.5147 223.02 17.84 223.254 18.096C223.5 18.3413 223.777 18.5227 224.086 18.64C224.406 18.7467 224.737 18.8 225.078 18.8C225.537 18.8 225.953 18.7093 226.326 18.528C226.71 18.336 227.014 18.0587 227.238 17.696C227.462 17.3227 227.574 16.8747 227.574 16.352C227.574 15.872 227.462 15.4613 227.238 15.12C227.025 14.768 226.726 14.5013 226.342 14.32C225.969 14.128 225.548 14.032 225.078 14.032C224.726 14.032 224.438 14.0747 224.214 14.16C223.99 14.2453 223.798 14.3467 223.638 14.464C223.489 14.5813 223.35 14.6827 223.222 14.768C223.105 14.8533 222.972 14.896 222.822 14.896H221.99C221.894 14.896 221.809 14.864 221.734 14.8C221.66 14.7253 221.628 14.64 221.638 14.544L222.15 9.2C222.161 9.072 222.198 8.976 222.262 8.912C222.337 8.83733 222.433 8.8 222.55 8.8H228.134C228.241 8.8 228.326 8.83733 228.39 8.912C228.465 8.976 228.502 9.06133 228.502 9.168V9.792C228.502 9.90933 228.465 10 228.39 10.064C228.326 10.128 228.241 10.16 228.134 10.16H223.526L223.222 13.312C223.372 13.216 223.612 13.104 223.942 12.976C224.273 12.8373 224.726 12.768 225.302 12.768C225.825 12.768 226.316 12.848 226.774 13.008C227.244 13.168 227.66 13.4027 228.022 13.712C228.385 14.0213 228.668 14.4 228.87 14.848C229.073 15.2853 229.174 15.792 229.174 16.368C229.174 17.1787 228.993 17.8667 228.63 18.432C228.278 18.9973 227.793 19.4293 227.174 19.728C226.566 20.016 225.868 20.16 225.078 20.16ZM234.978 20.16C234.242 20.16 233.618 20.048 233.106 19.824C232.605 19.5893 232.194 19.2693 231.874 18.864C231.554 18.4587 231.32 17.9947 231.17 17.472C231.032 16.9493 230.952 16.3947 230.93 15.808C230.92 15.52 230.909 15.216 230.898 14.896C230.898 14.576 230.898 14.256 230.898 13.936C230.909 13.6053 230.92 13.2907 230.93 12.992C230.941 12.4053 231.021 11.8507 231.17 11.328C231.33 10.7947 231.565 10.3307 231.874 9.936C232.194 9.53067 232.61 9.216 233.122 8.992C233.634 8.75733 234.253 8.64 234.978 8.64C235.714 8.64 236.333 8.75733 236.834 8.992C237.346 9.216 237.762 9.53067 238.082 9.936C238.402 10.3307 238.637 10.7947 238.786 11.328C238.946 11.8507 239.032 12.4053 239.042 12.992C239.053 13.2907 239.058 13.6053 239.058 13.936C239.069 14.256 239.069 14.576 239.058 14.896C239.058 15.216 239.053 15.52 239.042 15.808C239.032 16.3947 238.946 16.9493 238.786 17.472C238.637 17.9947 238.402 18.4587 238.082 18.864C237.773 19.2693 237.362 19.5893 236.85 19.824C236.349 20.048 235.725 20.16 234.978 20.16ZM234.978 18.8C235.81 18.8 236.424 18.528 236.818 17.984C237.224 17.4293 237.432 16.6773 237.442 15.728C237.464 15.4187 237.474 15.12 237.474 14.832C237.474 14.5333 237.474 14.24 237.474 13.952C237.474 13.6533 237.464 13.36 237.442 13.072C237.432 12.144 237.224 11.4027 236.818 10.848C236.424 10.2827 235.81 10 234.978 10C234.157 10 233.544 10.2827 233.138 10.848C232.744 11.4027 232.536 12.144 232.514 13.072C232.514 13.36 232.509 13.6533 232.498 13.952C232.498 14.24 232.498 14.5333 232.498 14.832C232.509 15.12 232.514 15.4187 232.514 15.728C232.536 16.6773 232.749 17.4293 233.154 17.984C233.56 18.528 234.168 18.8 234.978 18.8Z" fill="#606060"/>
<path d="M247.208 20C247.101 20 247.011 19.968 246.936 19.904C246.872 19.8293 246.84 19.7387 246.84 19.632V17.584H245.608C245.501 17.584 245.411 17.552 245.336 17.488C245.272 17.4133 245.24 17.3227 245.24 17.216V16.848C245.24 16.7413 245.272 16.656 245.336 16.592C245.411 16.5173 245.501 16.48 245.608 16.48H246.84V15.568H245.608C245.501 15.568 245.411 15.536 245.336 15.472C245.272 15.3973 245.24 15.3067 245.24 15.2V14.656C245.24 14.5493 245.272 14.464 245.336 14.4C245.411 14.3253 245.501 14.288 245.608 14.288H246.84V9.184C246.84 9.06667 246.872 8.976 246.936 8.912C247.011 8.83733 247.101 8.8 247.208 8.8H251.272C252.061 8.8 252.744 8.928 253.32 9.184C253.907 9.44 254.36 9.824 254.68 10.336C255 10.8373 255.16 11.4667 255.16 12.224C255.16 12.9707 255 13.5893 254.68 14.08C254.36 14.5707 253.907 14.944 253.32 15.2C252.744 15.4453 252.061 15.568 251.272 15.568H248.44V16.48H251.528C251.635 16.48 251.72 16.5173 251.784 16.592C251.859 16.656 251.896 16.7413 251.896 16.848V17.216C251.896 17.3227 251.859 17.4133 251.784 17.488C251.72 17.552 251.635 17.584 251.528 17.584H248.44V19.632C248.44 19.7387 248.403 19.8293 248.328 19.904C248.264 19.968 248.173 20 248.056 20H247.208ZM248.424 14.288H251.192C251.981 14.288 252.573 14.112 252.968 13.76C253.363 13.408 253.56 12.896 253.56 12.224C253.56 11.5627 253.368 11.0507 252.984 10.688C252.6 10.3253 252.003 10.144 251.192 10.144H248.424V14.288Z" fill="#606060"/>
<path d="M209.056 40.12C208.376 40.12 207.792 40.004 207.304 39.772C206.816 39.532 206.44 39.168 206.176 38.68C205.912 38.184 205.764 37.564 205.732 36.82C205.724 36.468 205.72 36.132 205.72 35.812C205.72 35.484 205.724 35.144 205.732 34.792C205.764 34.056 205.916 33.444 206.188 32.956C206.468 32.46 206.852 32.092 207.34 31.852C207.836 31.604 208.408 31.48 209.056 31.48C209.712 31.48 210.284 31.604 210.772 31.852C211.268 32.092 211.656 32.46 211.936 32.956C212.216 33.444 212.368 34.056 212.392 34.792C212.408 35.144 212.416 35.484 212.416 35.812C212.416 36.132 212.408 36.468 212.392 36.82C212.368 37.564 212.22 38.184 211.948 38.68C211.684 39.168 211.308 39.532 210.82 39.772C210.332 40.004 209.744 40.12 209.056 40.12ZM209.056 39.1C209.672 39.1 210.172 38.916 210.556 38.548C210.948 38.18 211.16 37.584 211.192 36.76C211.208 36.4 211.216 36.08 211.216 35.8C211.216 35.512 211.208 35.192 211.192 34.84C211.176 34.288 211.072 33.84 210.88 33.496C210.696 33.152 210.448 32.9 210.136 32.74C209.824 32.58 209.464 32.5 209.056 32.5C208.664 32.5 208.312 32.58 208 32.74C207.688 32.9 207.436 33.152 207.244 33.496C207.06 33.84 206.956 34.288 206.932 34.84C206.924 35.192 206.92 35.512 206.92 35.8C206.92 36.08 206.924 36.4 206.932 36.76C206.964 37.584 207.176 38.18 207.568 38.548C207.96 38.916 208.456 39.1 209.056 39.1ZM216.649 40.12C216.033 40.12 215.517 40.004 215.101 39.772C214.693 39.532 214.381 39.196 214.165 38.764C213.957 38.324 213.845 37.816 213.829 37.24C213.821 37 213.817 36.76 213.817 36.52C213.817 36.28 213.821 36.04 213.829 35.8C213.829 35.072 213.889 34.468 214.009 33.988C214.129 33.508 214.309 33.116 214.549 32.812C214.797 32.5 215.109 32.244 215.485 32.044C215.861 31.844 216.305 31.672 216.817 31.528C217.329 31.376 217.913 31.216 218.569 31.048C218.641 31.032 218.709 31.044 218.773 31.084C218.845 31.124 218.885 31.18 218.893 31.252L218.989 31.744C219.005 31.816 218.993 31.88 218.953 31.936C218.921 31.992 218.869 32.028 218.797 32.044C218.197 32.196 217.673 32.328 217.225 32.44C216.777 32.552 216.401 32.684 216.097 32.836C215.793 32.98 215.549 33.168 215.365 33.4C215.181 33.632 215.053 33.94 214.981 34.324C214.917 34.708 214.897 35.2 214.921 35.8L214.657 35.692C214.697 35.396 214.821 35.128 215.029 34.888C215.245 34.64 215.513 34.44 215.833 34.288C216.153 34.136 216.493 34.06 216.853 34.06C217.405 34.06 217.869 34.176 218.245 34.408C218.629 34.64 218.921 34.956 219.121 35.356C219.329 35.756 219.445 36.216 219.469 36.736C219.485 37.008 219.485 37.244 219.469 37.444C219.445 37.964 219.325 38.428 219.109 38.836C218.893 39.236 218.581 39.552 218.173 39.784C217.765 40.008 217.257 40.12 216.649 40.12ZM216.649 39.232C217.153 39.232 217.553 39.076 217.849 38.764C218.145 38.452 218.301 37.996 218.317 37.396C218.325 37.316 218.329 37.224 218.329 37.12C218.329 37.016 218.325 36.908 218.317 36.796C218.301 36.188 218.145 35.728 217.849 35.416C217.561 35.104 217.197 34.948 216.757 34.948C216.253 34.948 215.837 35.104 215.509 35.416C215.181 35.728 215.005 36.188 214.981 36.796C214.973 36.908 214.969 37.016 214.969 37.12C214.969 37.224 214.973 37.316 214.981 37.396C215.005 37.996 215.165 38.452 215.461 38.764C215.757 39.076 216.153 39.232 216.649 39.232ZM221.258 40C221.178 40 221.11 39.976 221.054 39.928C221.006 39.872 220.982 39.804 220.982 39.724V34.036C220.982 33.956 221.006 33.892 221.054 33.844C221.11 33.788 221.178 33.76 221.258 33.76H221.834C221.914 33.76 221.978 33.788 222.026 33.844C222.082 33.892 222.11 33.956 222.11 34.036V35.8H223.358C224.174 35.8 224.77 35.992 225.146 36.376C225.522 36.76 225.71 37.28 225.71 37.936C225.71 38.64 225.502 39.16 225.086 39.496C224.67 39.832 224.046 40 223.214 40H221.258ZM222.098 39.1H223.25C223.738 39.1 224.094 39.016 224.318 38.848C224.542 38.672 224.654 38.368 224.654 37.936C224.654 37.52 224.546 37.212 224.33 37.012C224.114 36.804 223.754 36.7 223.25 36.7H222.098V39.1ZM226.838 40C226.758 40 226.69 39.976 226.634 39.928C226.586 39.872 226.562 39.804 226.562 39.724V34.036C226.562 33.956 226.586 33.892 226.634 33.844C226.69 33.788 226.758 33.76 226.838 33.76H227.414C227.494 33.76 227.558 33.788 227.606 33.844C227.662 33.892 227.69 33.956 227.69 34.036V39.724C227.69 39.804 227.662 39.872 227.606 39.928C227.558 39.976 227.494 40 227.414 40H226.838ZM233.414 40C233.326 40 233.258 39.976 233.21 39.928C233.162 39.872 233.138 39.804 233.138 39.724V37.468C232.922 37.668 232.658 37.816 232.346 37.912C232.042 38 231.694 38.044 231.302 38.044C230.598 38.044 230.05 37.888 229.658 37.576C229.274 37.264 229.082 36.76 229.082 36.064V34.036C229.082 33.956 229.106 33.892 229.154 33.844C229.21 33.788 229.278 33.76 229.358 33.76H229.946C230.026 33.76 230.09 33.788 230.138 33.844C230.194 33.892 230.222 33.956 230.222 34.036V35.992C230.222 36.352 230.326 36.616 230.534 36.784C230.75 36.952 231.078 37.036 231.518 37.036C232.006 37.036 232.398 36.976 232.694 36.856C232.99 36.728 233.138 36.504 233.138 36.184V34.036C233.138 33.956 233.162 33.892 233.21 33.844C233.258 33.788 233.326 33.76 233.414 33.76H234.014C234.094 33.76 234.158 33.788 234.206 33.844C234.262 33.892 234.29 33.956 234.29 34.036V39.724C234.29 39.804 234.262 39.872 234.206 39.928C234.158 39.976 234.094 40 234.014 40H233.414ZM236.352 40C236.272 40 236.204 39.976 236.148 39.928C236.1 39.872 236.076 39.804 236.076 39.724V34.036C236.076 33.956 236.1 33.892 236.148 33.844C236.204 33.788 236.272 33.76 236.352 33.76H236.928C237.008 33.76 237.072 33.788 237.12 33.844C237.168 33.892 237.192 33.956 237.192 34.036V36.34H240.468V34.036C240.468 33.956 240.492 33.892 240.54 33.844C240.596 33.788 240.664 33.76 240.744 33.76H241.308C241.388 33.76 241.452 33.788 241.5 33.844C241.556 33.892 241.584 33.956 241.584 34.036V39.724C241.584 39.804 241.556 39.872 241.5 39.928C241.452 39.976 241.388 40 241.308 40H240.744C240.664 40 240.596 39.976 240.54 39.928C240.492 39.872 240.468 39.804 240.468 39.724V37.3H237.192V39.724C237.192 39.804 237.168 39.872 237.12 39.928C237.072 39.976 237.008 40 236.928 40H236.352ZM245.128 40.12C244.728 40.12 244.364 40.04 244.036 39.88C243.708 39.72 243.444 39.504 243.244 39.232C243.044 38.96 242.944 38.652 242.944 38.308C242.944 37.756 243.168 37.316 243.616 36.988C244.064 36.66 244.648 36.444 245.368 36.34L247.156 36.088V35.74C247.156 35.356 247.044 35.056 246.82 34.84C246.604 34.624 246.248 34.516 245.752 34.516C245.392 34.516 245.1 34.588 244.876 34.732C244.66 34.876 244.508 35.06 244.42 35.284C244.372 35.404 244.288 35.464 244.168 35.464H243.628C243.54 35.464 243.472 35.44 243.424 35.392C243.384 35.336 243.364 35.272 243.364 35.2C243.364 35.08 243.408 34.932 243.496 34.756C243.592 34.58 243.736 34.408 243.928 34.24C244.12 34.072 244.364 33.932 244.66 33.82C244.964 33.7 245.332 33.64 245.764 33.64C246.244 33.64 246.648 33.704 246.976 33.832C247.304 33.952 247.56 34.116 247.744 34.324C247.936 34.532 248.072 34.768 248.152 35.032C248.24 35.296 248.284 35.564 248.284 35.836V39.724C248.284 39.804 248.256 39.872 248.2 39.928C248.152 39.976 248.088 40 248.008 40H247.456C247.368 40 247.3 39.976 247.252 39.928C247.204 39.872 247.18 39.804 247.18 39.724V39.208C247.076 39.352 246.936 39.496 246.76 39.64C246.584 39.776 246.364 39.892 246.1 39.988C245.836 40.076 245.512 40.12 245.128 40.12ZM245.38 39.22C245.708 39.22 246.008 39.152 246.28 39.016C246.552 38.872 246.764 38.652 246.916 38.356C247.076 38.06 247.156 37.688 247.156 37.24V36.904L245.764 37.108C245.196 37.188 244.768 37.324 244.48 37.516C244.192 37.7 244.048 37.936 244.048 38.224C244.048 38.448 244.112 38.636 244.24 38.788C244.376 38.932 244.544 39.04 244.744 39.112C244.952 39.184 245.164 39.22 245.38 39.22ZM253.897 40C253.809 40 253.741 39.976 253.693 39.928C253.645 39.872 253.621 39.804 253.621 39.724V37.768H252.241V37.708C251.489 37.708 250.929 37.524 250.561 37.156C250.201 36.78 250.021 36.304 250.021 35.728C250.021 35.056 250.217 34.56 250.609 34.24C251.009 33.92 251.609 33.76 252.409 33.76H254.473C254.553 33.76 254.617 33.788 254.665 33.844C254.721 33.892 254.749 33.956 254.749 34.036V39.724C254.749 39.804 254.721 39.872 254.665 39.928C254.617 39.976 254.553 40 254.473 40H253.897ZM250.093 40C250.021 40 249.961 39.976 249.913 39.928C249.865 39.88 249.841 39.824 249.841 39.76C249.841 39.728 249.845 39.696 249.853 39.664C249.869 39.624 249.893 39.584 249.925 39.544L251.353 37.432L252.505 37.516L250.981 39.82C250.949 39.86 250.905 39.9 250.849 39.94C250.793 39.98 250.733 40 250.669 40H250.093ZM252.277 36.868H253.633V34.66H252.373C251.925 34.66 251.593 34.74 251.377 34.9C251.169 35.052 251.065 35.328 251.065 35.728C251.065 36.056 251.161 36.328 251.353 36.544C251.553 36.76 251.861 36.868 252.277 36.868Z" fill="#BFBFBF"/>
</svg>
