<svg width="206" height="38" viewBox="0 0 206 38" fill="none" xmlns="http://www.w3.org/2000/svg">
<path d="M0.76 13C0.642667 13 0.552 12.968 0.488 12.904C0.424 12.8293 0.392 12.7387 0.392 12.632V2.184C0.392 2.06667 0.424 1.976 0.488 1.912C0.552 1.83733 0.642667 1.8 0.76 1.8H6.92C7.03733 1.8 7.128 1.83733 7.192 1.912C7.26667 1.976 7.304 2.06667 7.304 2.184V2.824C7.304 2.93067 7.26667 3.02133 7.192 3.096C7.128 3.16 7.03733 3.192 6.92 3.192H1.96V12.632C1.96 12.7387 1.92267 12.8293 1.848 12.904C1.784 12.968 1.69333 13 1.576 13H0.76ZM8.111 14.344C8.02567 14.344 7.951 14.312 7.887 14.248C7.823 14.184 7.791 14.1093 7.791 14.024C7.791 13.9707 7.807 13.9067 7.839 13.832L13.311 0.712C13.343 0.647999 13.3857 0.583999 13.439 0.52C13.503 0.456 13.599 0.424 13.727 0.424H14.351C14.4363 0.424 14.511 0.456 14.575 0.52C14.639 0.583999 14.671 0.658666 14.671 0.743999C14.671 0.786666 14.6603 0.850666 14.639 0.936L9.151 14.056C9.12967 14.1093 9.08167 14.168 9.007 14.232C8.943 14.3067 8.85233 14.344 8.735 14.344H8.111ZM25.0781 15.24C24.9608 15.24 24.8701 15.2027 24.8061 15.128C24.7421 15.064 24.7101 14.9787 24.7101 14.872V13H16.8381C16.7208 13 16.6301 12.9627 16.5661 12.888C16.5021 12.8133 16.4701 12.7227 16.4701 12.616V2.168C16.4701 2.06133 16.5021 1.976 16.5661 1.912C16.6301 1.83733 16.7208 1.8 16.8381 1.8H17.6541C17.7715 1.8 17.8621 1.83733 17.9261 1.912C18.0008 1.976 18.0381 2.06133 18.0381 2.168V11.56H23.5421V2.168C23.5421 2.06133 23.5741 1.976 23.6381 1.912C23.7128 1.83733 23.8035 1.8 23.9101 1.8H24.7261C24.8435 1.8 24.9341 1.83733 24.9981 1.912C25.0728 1.976 25.1101 2.06133 25.1101 2.168V11.56H25.8941C26.0115 11.56 26.1021 11.5973 26.1661 11.672C26.2408 11.736 26.2781 11.8213 26.2781 11.928V14.872C26.2781 14.9787 26.2408 15.064 26.1661 15.128C26.1021 15.2027 26.0115 15.24 25.8941 15.24H25.0781ZM32.51 13C32.3927 13 32.302 12.968 32.238 12.904C32.174 12.8293 32.142 12.7387 32.142 12.632V2.184C32.142 2.06667 32.174 1.976 32.238 1.912C32.302 1.83733 32.3927 1.8 32.51 1.8H39.47C39.5873 1.8 39.678 1.83733 39.742 1.912C39.806 1.976 39.838 2.06667 39.838 2.184V2.824C39.838 2.93067 39.806 3.02133 39.742 3.096C39.678 3.16 39.5873 3.192 39.47 3.192H33.71V6.424H36.878C38.0087 6.424 38.8887 6.71733 39.518 7.304C40.1473 7.89067 40.462 8.68 40.462 9.672C40.462 10.0667 40.3873 10.4613 40.238 10.856C40.0887 11.2507 39.8647 11.608 39.566 11.928C39.278 12.248 38.91 12.5093 38.462 12.712C38.014 12.904 37.486 13 36.878 13H32.51ZM33.71 11.704H36.686C37.1553 11.704 37.55 11.6133 37.87 11.432C38.19 11.24 38.4353 10.984 38.606 10.664C38.7767 10.344 38.862 9.99733 38.862 9.624C38.862 9.05867 38.6807 8.6 38.318 8.248C37.966 7.88533 37.422 7.704 36.686 7.704H33.71V11.704ZM41.7528 13C41.6461 13 41.5554 12.9627 41.4808 12.888C41.4061 12.8133 41.3688 12.7227 41.3688 12.616V12.024C41.3688 11.8 41.4808 11.6827 41.7048 11.672C42.0354 11.6613 42.3128 11.5067 42.5368 11.208C42.7608 10.8987 42.9314 10.4133 43.0488 9.752C43.1661 9.08 43.2248 8.19467 43.2248 7.096V5.048C43.2248 4.94133 43.2568 4.856 43.3207 4.792C43.3954 4.71733 43.4861 4.68 43.5928 4.68H48.6808C48.7874 4.68 48.8728 4.71733 48.9368 4.792C49.0114 4.856 49.0487 4.94133 49.0487 5.048V12.632C49.0487 12.7387 49.0114 12.8293 48.9368 12.904C48.8728 12.968 48.7874 13 48.6808 13H47.9128C47.8061 13 47.7208 12.968 47.6568 12.904C47.5928 12.8293 47.5608 12.7387 47.5608 12.632V5.96H44.6808V7.272C44.6808 8.296 44.6221 9.176 44.5048 9.912C44.3874 10.6373 44.2061 11.2293 43.9608 11.688C43.7261 12.136 43.4221 12.4667 43.0488 12.68C42.6861 12.8933 42.2541 13 41.7528 13ZM51.786 13C51.69 13 51.6047 12.968 51.53 12.904C51.466 12.8293 51.434 12.7493 51.434 12.664V5.048C51.434 4.94133 51.466 4.856 51.53 4.792C51.6047 4.71733 51.6953 4.68 51.802 4.68H52.57C52.6767 4.68 52.762 4.71733 52.826 4.792C52.89 4.856 52.922 4.94133 52.922 5.048V11.832L52.506 11.4L57.354 4.92C57.4073 4.856 57.466 4.80267 57.53 4.76C57.594 4.70667 57.674 4.68 57.77 4.68H58.506C58.5913 4.68 58.666 4.712 58.73 4.776C58.8047 4.84 58.842 4.91467 58.842 5V12.632C58.842 12.7387 58.8047 12.8293 58.73 12.904C58.666 12.968 58.5807 13 58.474 13H57.722C57.6047 13 57.514 12.968 57.45 12.904C57.386 12.8293 57.354 12.7387 57.354 12.632V6.248L57.802 6.232L52.922 12.76C52.8793 12.8133 52.826 12.8667 52.762 12.92C52.698 12.9733 52.6127 13 52.506 13H51.786ZM61.552 13C61.4453 13 61.3547 12.968 61.28 12.904C61.216 12.8293 61.184 12.7387 61.184 12.632V5.048C61.184 4.94133 61.216 4.856 61.28 4.792C61.3547 4.71733 61.4453 4.68 61.552 4.68H62.32C62.4267 4.68 62.512 4.71733 62.576 4.792C62.64 4.856 62.672 4.94133 62.672 5.048V8.12H67.04V5.048C67.04 4.94133 67.072 4.856 67.136 4.792C67.2107 4.71733 67.3013 4.68 67.408 4.68H68.16C68.2667 4.68 68.352 4.71733 68.416 4.792C68.4907 4.856 68.528 4.94133 68.528 5.048V12.632C68.528 12.7387 68.4907 12.8293 68.416 12.904C68.352 12.968 68.2667 13 68.16 13H67.408C67.3013 13 67.2107 12.968 67.136 12.904C67.072 12.8293 67.04 12.7387 67.04 12.632V9.4H62.672V12.632C62.672 12.7387 62.64 12.8293 62.576 12.904C62.512 12.968 62.4267 13 62.32 13H61.552ZM76.182 13C76.0647 13 75.974 12.968 75.91 12.904C75.846 12.8293 75.814 12.7387 75.814 12.632V9.624C75.526 9.89067 75.174 10.088 74.758 10.216C74.3527 10.3333 73.8887 10.392 73.366 10.392C72.4273 10.392 71.6967 10.184 71.174 9.768C70.662 9.352 70.406 8.68 70.406 7.752V5.048C70.406 4.94133 70.438 4.856 70.502 4.792C70.5767 4.71733 70.6673 4.68 70.774 4.68H71.558C71.6647 4.68 71.75 4.71733 71.814 4.792C71.8887 4.856 71.926 4.94133 71.926 5.048V7.656C71.926 8.136 72.0647 8.488 72.342 8.712C72.63 8.936 73.0673 9.048 73.654 9.048C74.3047 9.048 74.8273 8.968 75.222 8.808C75.6167 8.63733 75.814 8.33867 75.814 7.912V5.048C75.814 4.94133 75.846 4.856 75.91 4.792C75.974 4.71733 76.0647 4.68 76.182 4.68H76.982C77.0887 4.68 77.174 4.71733 77.238 4.792C77.3127 4.856 77.35 4.94133 77.35 5.048V12.632C77.35 12.7387 77.3127 12.8293 77.238 12.904C77.174 12.968 77.0887 13 76.982 13H76.182ZM80.0829 13C79.9869 13 79.9015 12.968 79.8269 12.904C79.7629 12.8293 79.7309 12.7493 79.7309 12.664V5.048C79.7309 4.94133 79.7629 4.856 79.8269 4.792C79.9015 4.71733 79.9922 4.68 80.0989 4.68H80.8669C80.9735 4.68 81.0589 4.71733 81.1229 4.792C81.1869 4.856 81.2189 4.94133 81.2189 5.048V11.832L80.8029 11.4L85.6509 4.92C85.7042 4.856 85.7629 4.80267 85.8269 4.76C85.8909 4.70667 85.9709 4.68 86.0669 4.68H86.8029C86.8882 4.68 86.9629 4.712 87.0269 4.776C87.1015 4.84 87.1389 4.91467 87.1389 5V12.632C87.1389 12.7387 87.1015 12.8293 87.0269 12.904C86.9629 12.968 86.8775 13 86.7709 13H86.0189C85.9015 13 85.8109 12.968 85.7469 12.904C85.6829 12.8293 85.6509 12.7387 85.6509 12.632V6.248L86.0989 6.232L81.2189 12.76C81.1762 12.8133 81.1229 12.8667 81.0589 12.92C80.9949 12.9733 80.9095 13 80.8029 13H80.0829ZM89.8489 13C89.7422 13 89.6515 12.968 89.5769 12.904C89.5129 12.8293 89.4809 12.7387 89.4809 12.632V5.048C89.4809 4.94133 89.5129 4.856 89.5769 4.792C89.6515 4.71733 89.7422 4.68 89.8489 4.68H90.6009C90.7075 4.68 90.7929 4.71733 90.8569 4.792C90.9315 4.856 90.9689 4.94133 90.9689 5.048V8.12H92.4249L94.5849 4.92C94.6382 4.84533 94.6969 4.78667 94.7609 4.744C94.8249 4.70133 94.9102 4.68 95.0169 4.68H95.8489C95.9449 4.68 96.0249 4.70133 96.0889 4.744C96.1529 4.78667 96.1849 4.85067 96.1849 4.936C96.1849 4.95733 96.1742 4.98933 96.1529 5.032C96.1422 5.064 96.1262 5.096 96.1049 5.128L93.7049 8.664L96.4249 12.536C96.4782 12.6 96.5049 12.6693 96.5049 12.744C96.5049 12.8293 96.4729 12.8933 96.4089 12.936C96.3555 12.9787 96.2809 13 96.1849 13H95.2089C95.1129 13 95.0329 12.9787 94.9689 12.936C94.9049 12.8933 94.8462 12.8347 94.7929 12.76L92.4409 9.416H90.9689V12.632C90.9689 12.7387 90.9315 12.8293 90.8569 12.904C90.7929 12.968 90.7075 13 90.6009 13H89.8489ZM98.411 13C98.315 13 98.2297 12.968 98.155 12.904C98.091 12.8293 98.059 12.7493 98.059 12.664V5.048C98.059 4.94133 98.091 4.856 98.155 4.792C98.2297 4.71733 98.3203 4.68 98.427 4.68H99.195C99.3017 4.68 99.387 4.71733 99.451 4.792C99.515 4.856 99.547 4.94133 99.547 5.048V11.832L99.131 11.4L103.979 4.92C104.032 4.856 104.091 4.80267 104.155 4.76C104.219 4.70667 104.299 4.68 104.395 4.68H105.131C105.216 4.68 105.291 4.712 105.355 4.776C105.43 4.84 105.467 4.91467 105.467 5V12.632C105.467 12.7387 105.43 12.8293 105.355 12.904C105.291 12.968 105.206 13 105.099 13H104.347C104.23 13 104.139 12.968 104.075 12.904C104.011 12.8293 103.979 12.7387 103.979 12.632V6.248L104.427 6.232L99.547 12.76C99.5043 12.8133 99.451 12.8667 99.387 12.92C99.323 12.9733 99.2377 13 99.131 13H98.411ZM115.091 13.16C114.334 13.16 113.678 13.016 113.123 12.728C112.579 12.4293 112.158 12.008 111.859 11.464C111.56 10.9093 111.4 10.248 111.379 9.48C111.368 9.32 111.363 9.10667 111.363 8.84C111.363 8.57333 111.368 8.36 111.379 8.2C111.4 7.432 111.56 6.776 111.859 6.232C112.158 5.67733 112.579 5.256 113.123 4.968C113.678 4.66933 114.334 4.52 115.091 4.52C115.71 4.52 116.238 4.60533 116.675 4.776C117.123 4.94667 117.491 5.16533 117.779 5.432C118.067 5.69867 118.28 5.98667 118.419 6.296C118.568 6.60533 118.648 6.89867 118.659 7.176C118.67 7.28267 118.638 7.368 118.563 7.432C118.488 7.496 118.398 7.528 118.291 7.528H117.523C117.416 7.528 117.336 7.50667 117.283 7.464C117.23 7.41067 117.176 7.32533 117.123 7.208C116.931 6.68533 116.67 6.31733 116.339 6.104C116.008 5.89067 115.598 5.784 115.107 5.784C114.467 5.784 113.944 5.98133 113.539 6.376C113.144 6.77067 112.931 7.40533 112.899 8.28C112.888 8.664 112.888 9.03733 112.899 9.4C112.931 10.2853 113.144 10.9253 113.539 11.32C113.944 11.704 114.467 11.896 115.107 11.896C115.598 11.896 116.008 11.7893 116.339 11.576C116.67 11.3627 116.931 10.9947 117.123 10.472C117.176 10.3547 117.23 10.2747 117.283 10.232C117.336 10.1787 117.416 10.152 117.523 10.152H118.291C118.398 10.152 118.488 10.184 118.563 10.248C118.638 10.312 118.67 10.3973 118.659 10.504C118.648 10.728 118.6 10.9573 118.515 11.192C118.43 11.4267 118.291 11.6667 118.099 11.912C117.918 12.1467 117.688 12.36 117.411 12.552C117.134 12.7333 116.798 12.8827 116.403 13C116.019 13.1067 115.582 13.16 115.091 13.16ZM124.833 13C124.726 13 124.641 12.968 124.577 12.904C124.513 12.84 124.481 12.7547 124.481 12.648V4.984C124.481 4.89867 124.513 4.82933 124.577 4.776C124.652 4.712 124.726 4.68 124.801 4.68H125.617C125.788 4.68 125.921 4.76533 126.017 4.936L128.737 10.024L131.473 4.936C131.569 4.76533 131.702 4.68 131.873 4.68H132.673C132.758 4.68 132.833 4.712 132.897 4.776C132.961 4.82933 132.993 4.89867 132.993 4.984V12.648C132.993 12.7547 132.961 12.84 132.897 12.904C132.833 12.968 132.753 13 132.657 13H131.873C131.766 13 131.681 12.968 131.617 12.904C131.553 12.84 131.521 12.7547 131.521 12.648V6.264L132.081 6.328L129.473 11.256C129.42 11.3627 129.356 11.4587 129.281 11.544C129.206 11.6293 129.094 11.672 128.945 11.672H128.529C128.39 11.672 128.284 11.6293 128.209 11.544C128.134 11.4587 128.065 11.3627 128.001 11.256L125.473 6.568L125.969 6.52V12.648C125.969 12.7547 125.937 12.84 125.873 12.904C125.809 12.968 125.724 13 125.617 13H124.833ZM140.571 13C140.454 13 140.363 12.968 140.299 12.904C140.235 12.8293 140.203 12.7387 140.203 12.632V10.024H138.363V9.944C137.36 9.944 136.614 9.69867 136.123 9.208C135.643 8.70667 135.403 8.072 135.403 7.304C135.403 6.408 135.664 5.74667 136.187 5.32C136.72 4.89333 137.52 4.68 138.587 4.68H141.339C141.446 4.68 141.531 4.71733 141.595 4.792C141.67 4.856 141.707 4.94133 141.707 5.048V12.632C141.707 12.7387 141.67 12.8293 141.595 12.904C141.531 12.968 141.446 13 141.339 13H140.571ZM135.499 13C135.403 13 135.323 12.968 135.259 12.904C135.195 12.84 135.163 12.7653 135.163 12.68C135.163 12.6373 135.168 12.5947 135.179 12.552C135.2 12.4987 135.232 12.4453 135.275 12.392L137.179 9.576L138.715 9.688L136.683 12.76C136.64 12.8133 136.582 12.8667 136.507 12.92C136.432 12.9733 136.352 13 136.267 13H135.499ZM138.411 8.824H140.219V5.88H138.539C137.942 5.88 137.499 5.98667 137.211 6.2C136.934 6.40267 136.795 6.77067 136.795 7.304C136.795 7.74133 136.923 8.104 137.179 8.392C137.446 8.68 137.856 8.824 138.411 8.824ZM147.45 13.16C146.693 13.16 146.037 13.016 145.482 12.728C144.938 12.4293 144.517 12.008 144.218 11.464C143.92 10.9093 143.76 10.248 143.738 9.48C143.728 9.32 143.722 9.10667 143.722 8.84C143.722 8.57333 143.728 8.36 143.738 8.2C143.76 7.432 143.92 6.776 144.218 6.232C144.517 5.67733 144.938 5.256 145.482 4.968C146.037 4.66933 146.693 4.52 147.45 4.52C148.069 4.52 148.597 4.60533 149.034 4.776C149.482 4.94667 149.85 5.16533 150.138 5.432C150.426 5.69867 150.64 5.98667 150.778 6.296C150.928 6.60533 151.008 6.89867 151.018 7.176C151.029 7.28267 150.997 7.368 150.922 7.432C150.848 7.496 150.757 7.528 150.65 7.528H149.882C149.776 7.528 149.696 7.50667 149.642 7.464C149.589 7.41067 149.536 7.32533 149.482 7.208C149.29 6.68533 149.029 6.31733 148.698 6.104C148.368 5.89067 147.957 5.784 147.466 5.784C146.826 5.784 146.304 5.98133 145.898 6.376C145.504 6.77067 145.29 7.40533 145.258 8.28C145.248 8.664 145.248 9.03733 145.258 9.4C145.29 10.2853 145.504 10.9253 145.898 11.32C146.304 11.704 146.826 11.896 147.466 11.896C147.957 11.896 148.368 11.7893 148.698 11.576C149.029 11.3627 149.29 10.9947 149.482 10.472C149.536 10.3547 149.589 10.2747 149.642 10.232C149.696 10.1787 149.776 10.152 149.882 10.152H150.65C150.757 10.152 150.848 10.184 150.922 10.248C150.997 10.312 151.029 10.3973 151.018 10.504C151.008 10.728 150.96 10.9573 150.874 11.192C150.789 11.4267 150.65 11.6667 150.458 11.912C150.277 12.1467 150.048 12.36 149.77 12.552C149.493 12.7333 149.157 12.8827 148.762 13C148.378 13.1067 147.941 13.16 147.45 13.16ZM156.326 13.16C155.516 13.16 154.838 13.0053 154.294 12.696C153.75 12.3867 153.334 11.96 153.046 11.416C152.758 10.8613 152.598 10.232 152.566 9.528C152.556 9.34667 152.55 9.11733 152.55 8.84C152.55 8.552 152.556 8.32267 152.566 8.152C152.598 7.43733 152.758 6.808 153.046 6.264C153.345 5.72 153.766 5.29333 154.31 4.984C154.854 4.67467 155.526 4.52 156.326 4.52C157.126 4.52 157.798 4.67467 158.342 4.984C158.886 5.29333 159.302 5.72 159.59 6.264C159.889 6.808 160.054 7.43733 160.086 8.152C160.097 8.32267 160.102 8.552 160.102 8.84C160.102 9.11733 160.097 9.34667 160.086 9.528C160.054 10.232 159.894 10.8613 159.606 11.416C159.318 11.96 158.902 12.3867 158.358 12.696C157.814 13.0053 157.137 13.16 156.326 13.16ZM156.326 11.928C156.988 11.928 157.516 11.72 157.91 11.304C158.305 10.8773 158.518 10.2587 158.55 9.448C158.561 9.288 158.566 9.08533 158.566 8.84C158.566 8.59467 158.561 8.392 158.55 8.232C158.518 7.42133 158.305 6.808 157.91 6.392C157.516 5.96533 156.988 5.752 156.326 5.752C155.665 5.752 155.132 5.96533 154.726 6.392C154.332 6.808 154.124 7.42133 154.102 8.232C154.092 8.392 154.086 8.59467 154.086 8.84C154.086 9.08533 154.092 9.288 154.102 9.448C154.124 10.2587 154.332 10.8773 154.726 11.304C155.132 11.72 155.665 11.928 156.326 11.928ZM162.458 13C162.351 13 162.266 12.968 162.202 12.904C162.138 12.84 162.106 12.7547 162.106 12.648V4.984C162.106 4.89867 162.138 4.82933 162.202 4.776C162.277 4.712 162.351 4.68 162.426 4.68H163.242C163.413 4.68 163.546 4.76533 163.642 4.936L166.362 10.024L169.098 4.936C169.194 4.76533 169.327 4.68 169.498 4.68H170.298C170.383 4.68 170.458 4.712 170.522 4.776C170.586 4.82933 170.618 4.89867 170.618 4.984V12.648C170.618 12.7547 170.586 12.84 170.522 12.904C170.458 12.968 170.378 13 170.282 13H169.498C169.391 13 169.306 12.968 169.242 12.904C169.178 12.84 169.146 12.7547 169.146 12.648V6.264L169.706 6.328L167.098 11.256C167.045 11.3627 166.981 11.4587 166.906 11.544C166.831 11.6293 166.719 11.672 166.57 11.672H166.154C166.015 11.672 165.909 11.6293 165.834 11.544C165.759 11.4587 165.69 11.3627 165.626 11.256L163.098 6.568L163.594 6.52V12.648C163.594 12.7547 163.562 12.84 163.498 12.904C163.434 12.968 163.349 13 163.242 13H162.458ZM177.302 13C177.195 13 177.105 12.968 177.03 12.904C176.966 12.8293 176.934 12.7387 176.934 12.632V5.048C176.934 4.94133 176.966 4.856 177.03 4.792C177.105 4.71733 177.195 4.68 177.302 4.68H180.63C181.633 4.68 182.385 4.88267 182.886 5.288C183.398 5.69333 183.654 6.23733 183.654 6.92C183.654 7.4 183.563 7.76267 183.382 8.008C183.201 8.25333 182.945 8.46133 182.614 8.632C183.019 8.80267 183.323 9.08 183.526 9.464C183.739 9.83733 183.846 10.2267 183.846 10.632C183.846 11.4 183.574 11.9867 183.03 12.392C182.486 12.7973 181.729 13 180.758 13H177.302ZM178.406 11.832H180.63C181.142 11.832 181.553 11.736 181.862 11.544C182.182 11.3413 182.342 11.0373 182.342 10.632C182.342 10.2053 182.198 9.896 181.91 9.704C181.622 9.50133 181.195 9.4 180.63 9.4H178.406V11.832ZM178.406 8.216H180.534C181.046 8.216 181.451 8.104 181.75 7.88C182.059 7.656 182.214 7.34133 182.214 6.936C182.214 6.52 182.059 6.23733 181.75 6.088C181.451 5.928 181.046 5.848 180.534 5.848H178.406V8.216ZM189.215 13.16C188.116 13.16 187.241 12.824 186.591 12.152C185.94 11.4693 185.583 10.5413 185.519 9.368C185.508 9.22933 185.503 9.05333 185.503 8.84C185.503 8.616 185.508 8.43467 185.519 8.296C185.561 7.53867 185.737 6.87733 186.047 6.312C186.356 5.736 186.777 5.29333 187.311 4.984C187.855 4.67467 188.489 4.52 189.215 4.52C190.025 4.52 190.703 4.69067 191.247 5.032C191.801 5.37333 192.223 5.85867 192.511 6.488C192.799 7.11733 192.943 7.85333 192.943 8.696V8.968C192.943 9.08533 192.905 9.176 192.831 9.24C192.767 9.304 192.681 9.336 192.575 9.336H187.039C187.039 9.34667 187.039 9.368 187.039 9.4C187.039 9.432 187.039 9.45867 187.039 9.48C187.06 9.91733 187.156 10.328 187.327 10.712C187.497 11.0853 187.743 11.3893 188.063 11.624C188.383 11.8587 188.767 11.976 189.215 11.976C189.599 11.976 189.919 11.9173 190.175 11.8C190.431 11.6827 190.639 11.5547 190.799 11.416C190.959 11.2667 191.065 11.1547 191.119 11.08C191.215 10.9413 191.289 10.8613 191.343 10.84C191.396 10.808 191.481 10.792 191.599 10.792H192.367C192.473 10.792 192.559 10.824 192.623 10.888C192.697 10.9413 192.729 11.0213 192.719 11.128C192.708 11.288 192.623 11.4853 192.463 11.72C192.303 11.944 192.073 12.168 191.775 12.392C191.476 12.616 191.113 12.8027 190.687 12.952C190.26 13.0907 189.769 13.16 189.215 13.16ZM187.039 8.232H191.423V8.184C191.423 7.704 191.332 7.27733 191.151 6.904C190.98 6.53067 190.729 6.23733 190.399 6.024C190.068 5.8 189.673 5.688 189.215 5.688C188.756 5.688 188.361 5.8 188.031 6.024C187.711 6.23733 187.465 6.53067 187.295 6.904C187.124 7.27733 187.039 7.704 187.039 8.184V8.232ZM198.216 13.16C197.459 13.16 196.803 13.016 196.248 12.728C195.704 12.4293 195.283 12.008 194.984 11.464C194.685 10.9093 194.525 10.248 194.504 9.48C194.493 9.32 194.488 9.10667 194.488 8.84C194.488 8.57333 194.493 8.36 194.504 8.2C194.525 7.432 194.685 6.776 194.984 6.232C195.283 5.67733 195.704 5.256 196.248 4.968C196.803 4.66933 197.459 4.52 198.216 4.52C198.835 4.52 199.363 4.60533 199.8 4.776C200.248 4.94667 200.616 5.16533 200.904 5.432C201.192 5.69867 201.405 5.98667 201.544 6.296C201.693 6.60533 201.773 6.89867 201.784 7.176C201.795 7.28267 201.763 7.368 201.688 7.432C201.613 7.496 201.523 7.528 201.416 7.528H200.648C200.541 7.528 200.461 7.50667 200.408 7.464C200.355 7.41067 200.301 7.32533 200.248 7.208C200.056 6.68533 199.795 6.31733 199.464 6.104C199.133 5.89067 198.723 5.784 198.232 5.784C197.592 5.784 197.069 5.98133 196.664 6.376C196.269 6.77067 196.056 7.40533 196.024 8.28C196.013 8.664 196.013 9.03733 196.024 9.4C196.056 10.2853 196.269 10.9253 196.664 11.32C197.069 11.704 197.592 11.896 198.232 11.896C198.723 11.896 199.133 11.7893 199.464 11.576C199.795 11.3627 200.056 10.9947 200.248 10.472C200.301 10.3547 200.355 10.2747 200.408 10.232C200.461 10.1787 200.541 10.152 200.648 10.152H201.416C201.523 10.152 201.613 10.184 201.688 10.248C201.763 10.312 201.795 10.3973 201.784 10.504C201.773 10.728 201.725 10.9573 201.64 11.192C201.555 11.4267 201.416 11.6667 201.224 11.912C201.043 12.1467 200.813 12.36 200.536 12.552C200.259 12.7333 199.923 12.8827 199.528 13C199.144 13.1067 198.707 13.16 198.216 13.16ZM203.572 14.2C203.487 14.2 203.417 14.168 203.364 14.104C203.321 14.04 203.305 13.96 203.316 13.864L203.684 11.576C203.705 11.448 203.748 11.3413 203.812 11.256C203.887 11.16 203.993 11.112 204.132 11.112H205.204C205.279 11.112 205.337 11.1387 205.38 11.192C205.433 11.2453 205.46 11.3093 205.46 11.384C205.46 11.4693 205.439 11.5547 205.396 11.64L204.564 13.832C204.521 13.9387 204.463 14.024 204.388 14.088C204.324 14.1627 204.228 14.2 204.1 14.2H203.572ZM0.76 37C0.642667 37 0.552 36.968 0.488 36.904C0.424 36.8293 0.392 36.7387 0.392 36.632V26.184C0.392 26.0667 0.424 25.976 0.488 25.912C0.552 25.8373 0.642667 25.8 0.76 25.8H4.824C5.61333 25.8 6.296 25.928 6.872 26.184C7.45867 26.44 7.912 26.824 8.232 27.336C8.552 27.8373 8.712 28.4667 8.712 29.224C8.712 29.9813 8.552 30.6107 8.232 31.112C7.912 31.6133 7.45867 31.992 6.872 32.248C6.296 32.504 5.61333 32.632 4.824 32.632H1.992V36.632C1.992 36.7387 1.95467 36.8293 1.88 36.904C1.816 36.968 1.72533 37 1.608 37H0.76ZM1.976 31.288H4.744C5.53333 31.288 6.12533 31.112 6.52 30.76C6.91467 30.408 7.112 29.896 7.112 29.224C7.112 28.5627 6.92 28.0507 6.536 27.688C6.152 27.3253 5.55467 27.144 4.744 27.144H1.976V31.288ZM13.8576 37.16C13.047 37.16 12.3696 37.0053 11.8256 36.696C11.2816 36.3867 10.8656 35.96 10.5776 35.416C10.2896 34.8613 10.1296 34.232 10.0976 33.528C10.087 33.3467 10.0816 33.1173 10.0816 32.84C10.0816 32.552 10.087 32.3227 10.0976 32.152C10.1296 31.4373 10.2896 30.808 10.5776 30.264C10.8763 29.72 11.2976 29.2933 11.8416 28.984C12.3856 28.6747 13.0576 28.52 13.8576 28.52C14.6576 28.52 15.3296 28.6747 15.8736 28.984C16.4176 29.2933 16.8336 29.72 17.1216 30.264C17.4203 30.808 17.5856 31.4373 17.6176 32.152C17.6283 32.3227 17.6336 32.552 17.6336 32.84C17.6336 33.1173 17.6283 33.3467 17.6176 33.528C17.5856 34.232 17.4256 34.8613 17.1376 35.416C16.8496 35.96 16.4336 36.3867 15.8896 36.696C15.3456 37.0053 14.6683 37.16 13.8576 37.16ZM13.8576 35.928C14.519 35.928 15.047 35.72 15.4416 35.304C15.8363 34.8773 16.0496 34.2587 16.0816 33.448C16.0923 33.288 16.0976 33.0853 16.0976 32.84C16.0976 32.5947 16.0923 32.392 16.0816 32.232C16.0496 31.4213 15.8363 30.808 15.4416 30.392C15.047 29.9653 14.519 29.752 13.8576 29.752C13.1963 29.752 12.663 29.9653 12.2576 30.392C11.863 30.808 11.655 31.4213 11.6336 32.232C11.623 32.392 11.6176 32.5947 11.6176 32.84C11.6176 33.0853 11.623 33.288 11.6336 33.448C11.655 34.2587 11.863 34.8773 12.2576 35.304C12.663 35.72 13.1963 35.928 13.8576 35.928ZM22.9971 37.16C22.2398 37.16 21.5838 37.016 21.0291 36.728C20.4851 36.4293 20.0638 36.008 19.7651 35.464C19.4665 34.9093 19.3065 34.248 19.2851 33.48C19.2745 33.32 19.2691 33.1067 19.2691 32.84C19.2691 32.5733 19.2745 32.36 19.2851 32.2C19.3065 31.432 19.4665 30.776 19.7651 30.232C20.0638 29.6773 20.4851 29.256 21.0291 28.968C21.5838 28.6693 22.2398 28.52 22.9971 28.52C23.6158 28.52 24.1438 28.6053 24.5811 28.776C25.0291 28.9467 25.3971 29.1653 25.6851 29.432C25.9731 29.6987 26.1865 29.9867 26.3251 30.296C26.4745 30.6053 26.5545 30.8987 26.5651 31.176C26.5758 31.2827 26.5438 31.368 26.4691 31.432C26.3945 31.496 26.3038 31.528 26.1971 31.528H25.4291C25.3225 31.528 25.2425 31.5067 25.1891 31.464C25.1358 31.4107 25.0825 31.3253 25.0291 31.208C24.8371 30.6853 24.5758 30.3173 24.2451 30.104C23.9145 29.8907 23.5038 29.784 23.0131 29.784C22.3731 29.784 21.8505 29.9813 21.4451 30.376C21.0505 30.7707 20.8371 31.4053 20.8051 32.28C20.7945 32.664 20.7945 33.0373 20.8051 33.4C20.8371 34.2853 21.0505 34.9253 21.4451 35.32C21.8505 35.704 22.3731 35.896 23.0131 35.896C23.5038 35.896 23.9145 35.7893 24.2451 35.576C24.5758 35.3627 24.8371 34.9947 25.0291 34.472C25.0825 34.3547 25.1358 34.2747 25.1891 34.232C25.2425 34.1787 25.3225 34.152 25.4291 34.152H26.1971C26.3038 34.152 26.3945 34.184 26.4691 34.248C26.5438 34.312 26.5758 34.3973 26.5651 34.504C26.5545 34.728 26.5065 34.9573 26.4211 35.192C26.3358 35.4267 26.1971 35.6667 26.0051 35.912C25.8238 36.1467 25.5945 36.36 25.3171 36.552C25.0398 36.7333 24.7038 36.8827 24.3091 37C23.9251 37.1067 23.4878 37.16 22.9971 37.16ZM31.8253 37.16C31.0679 37.16 30.4119 37.016 29.8573 36.728C29.3133 36.4293 28.8919 36.008 28.5933 35.464C28.2946 34.9093 28.1346 34.248 28.1133 33.48C28.1026 33.32 28.0973 33.1067 28.0973 32.84C28.0973 32.5733 28.1026 32.36 28.1133 32.2C28.1346 31.432 28.2946 30.776 28.5933 30.232C28.8919 29.6773 29.3133 29.256 29.8573 28.968C30.4119 28.6693 31.0679 28.52 31.8253 28.52C32.4439 28.52 32.9719 28.6053 33.4093 28.776C33.8573 28.9467 34.2253 29.1653 34.5133 29.432C34.8013 29.6987 35.0146 29.9867 35.1533 30.296C35.3026 30.6053 35.3826 30.8987 35.3933 31.176C35.4039 31.2827 35.3719 31.368 35.2973 31.432C35.2226 31.496 35.1319 31.528 35.0253 31.528H34.2573C34.1506 31.528 34.0706 31.5067 34.0173 31.464C33.9639 31.4107 33.9106 31.3253 33.8573 31.208C33.6653 30.6853 33.4039 30.3173 33.0733 30.104C32.7426 29.8907 32.3319 29.784 31.8413 29.784C31.2013 29.784 30.6786 29.9813 30.2733 30.376C29.8786 30.7707 29.6653 31.4053 29.6332 32.28C29.6226 32.664 29.6226 33.0373 29.6332 33.4C29.6653 34.2853 29.8786 34.9253 30.2733 35.32C30.6786 35.704 31.2013 35.896 31.8413 35.896C32.3319 35.896 32.7426 35.7893 33.0733 35.576C33.4039 35.3627 33.6653 34.9947 33.8573 34.472C33.9106 34.3547 33.9639 34.2747 34.0173 34.232C34.0706 34.1787 34.1506 34.152 34.2573 34.152H35.0253C35.1319 34.152 35.2226 34.184 35.2973 34.248C35.3719 34.312 35.4039 34.3973 35.3933 34.504C35.3826 34.728 35.3346 34.9573 35.2493 35.192C35.1639 35.4267 35.0253 35.6667 34.8333 35.912C34.6519 36.1467 34.4226 36.36 34.1453 36.552C33.8679 36.7333 33.5319 36.8827 33.1373 37C32.7533 37.1067 32.3159 37.16 31.8253 37.16ZM37.6454 37C37.5494 37 37.464 36.968 37.3894 36.904C37.3254 36.8293 37.2934 36.7493 37.2934 36.664V29.048C37.2934 28.9413 37.3254 28.856 37.3894 28.792C37.464 28.7173 37.5547 28.68 37.6614 28.68H38.4294C38.536 28.68 38.6214 28.7173 38.6854 28.792C38.7494 28.856 38.7814 28.9413 38.7814 29.048V35.832L38.3654 35.4L43.2134 28.92C43.2667 28.856 43.3254 28.8027 43.3894 28.76C43.4534 28.7067 43.5334 28.68 43.6294 28.68H44.3654C44.4507 28.68 44.5254 28.712 44.5894 28.776C44.664 28.84 44.7014 28.9147 44.7014 29V36.632C44.7014 36.7387 44.664 36.8293 44.5894 36.904C44.5254 36.968 44.44 37 44.3334 37H43.5814C43.464 37 43.3734 36.968 43.3094 36.904C43.2454 36.8293 43.2134 36.7387 43.2134 36.632V30.248L43.6614 30.232L38.7814 36.76C38.7387 36.8133 38.6854 36.8667 38.6214 36.92C38.5574 36.9733 38.472 37 38.3654 37H37.6454ZM52.2274 37C52.11 37 52.0194 36.968 51.9554 36.904C51.8914 36.8293 51.8594 36.7387 51.8594 36.632V34.024H50.0194V33.944C49.0167 33.944 48.27 33.6987 47.7794 33.208C47.2994 32.7067 47.0594 32.072 47.0594 31.304C47.0594 30.408 47.3207 29.7467 47.8434 29.32C48.3767 28.8933 49.1767 28.68 50.2434 28.68H52.9954C53.102 28.68 53.1874 28.7173 53.2514 28.792C53.326 28.856 53.3634 28.9413 53.3634 29.048V36.632C53.3634 36.7387 53.326 36.8293 53.2514 36.904C53.1874 36.968 53.102 37 52.9954 37H52.2274ZM47.1554 37C47.0594 37 46.9794 36.968 46.9154 36.904C46.8514 36.84 46.8194 36.7653 46.8194 36.68C46.8194 36.6373 46.8247 36.5947 46.8354 36.552C46.8567 36.4987 46.8887 36.4453 46.9314 36.392L48.8354 33.576L50.3714 33.688L48.3394 36.76C48.2967 36.8133 48.238 36.8667 48.1634 36.92C48.0887 36.9733 48.0087 37 47.9234 37H47.1554ZM50.0674 32.824H51.8754V29.88H50.1954C49.598 29.88 49.1554 29.9867 48.8674 30.2C48.59 30.4027 48.4514 30.7707 48.4514 31.304C48.4514 31.7413 48.5794 32.104 48.8354 32.392C49.102 32.68 49.5127 32.824 50.0674 32.824Z" fill="#414141"/>
</svg>
